<svg width="32" height="32" viewBox="0 0 32 32" fill="none" xmlns="http://www.w3.org/2000/svg">
<path fill-rule="evenodd" clip-rule="evenodd" d="M14.96 2.28117C14.3538 2.28117 13.7724 2.52199 13.3438 2.95064C12.9151 3.3793 12.6743 3.96068 12.6743 4.56689C12.6743 5.1731 12.9151 5.75448 13.3438 6.18313C13.7724 6.61179 14.3538 6.8526 14.96 6.8526H21.1954C22.774 6.88334 24.2775 7.532 25.383 8.65923C26.4885 9.78646 27.1078 11.3023 27.1078 12.8812C27.1078 14.46 26.4885 15.9759 25.383 17.1031C24.2775 18.2303 22.774 18.879 21.1954 18.9097H11.0103V14.96C11.0102 14.508 10.8761 14.0662 10.6249 13.6904C10.3738 13.3146 10.0168 13.0217 9.59921 12.8488C9.18161 12.6758 8.72211 12.6305 8.27879 12.7187C7.83547 12.8069 7.42824 13.0245 7.10858 13.344L0.877718 19.5749C0.556719 19.8938 0.337581 20.3007 0.248063 20.7443C0.158545 21.1878 0.202674 21.6479 0.374861 22.0663C0.486099 22.3406 0.652195 22.5897 0.873147 22.8137L7.10858 29.0492C7.42824 29.3687 7.83547 29.5864 8.27879 29.6745C8.72211 29.7627 9.18161 29.7174 9.59921 29.5444C10.0168 29.3715 10.3738 29.0786 10.6249 28.7028C10.8761 28.327 11.0102 27.8852 11.0103 27.4332V23.4812H21.1954C22.6005 23.5018 23.9957 23.2429 25.2999 22.7194C26.604 22.196 27.7911 21.4185 28.792 20.4321C29.7929 19.4458 30.5878 18.2703 31.1303 16.974C31.6728 15.6777 31.9522 14.2864 31.9522 12.8812C31.9522 11.4759 31.6728 10.0847 31.1303 8.78836C30.5878 7.49206 29.7929 6.31655 28.792 5.3302C27.7911 4.34385 26.604 3.56635 25.2999 3.04291C23.9957 2.51947 22.6005 2.26054 21.1954 2.28117H14.96Z" fill="black"/>
</svg>
